<svg version="1.1" id="Layer_1" xmlns="http://www.w3.org/2000/svg" xmlns:xlink="http://www.w3.org/1999/xlink" x="0px" y="0px"
	 width="100%" viewBox="0 0 512 512" enable-background="new 0 0 512 512" xml:space="preserve">
<path fill="#0B5527" opacity="1.000000" stroke="none" 
	d="
M0.999999,444.000000 
	C1.000000,320.312439 1.000000,196.624878 1.000500,72.103508 
	C2.191512,67.902847 3.382024,64.536003 4.908351,60.984959 
	C7.828124,56.646183 9.079873,62.161758 11.287373,61.734577 
	C12.473261,59.159142 15.209101,54.998226 14.547991,54.360867 
	C10.615938,50.570091 13.643620,46.305939 12.877494,42.197979 
	C13.036964,41.640373 13.065519,41.318501 13.196473,40.798126 
	C13.974565,40.083847 14.528573,39.557281 15.467052,39.008049 
	C16.440844,37.866665 17.030163,36.747948 17.593307,35.755379 
	C17.567133,35.881527 17.581463,35.624138 17.936260,35.712418 
	C18.794785,34.833683 19.298513,33.866665 19.851559,32.627113 
	C20.055651,32.021046 20.210430,31.687506 20.641853,31.247925 
	C21.624018,30.211172 22.329540,29.280464 23.314564,28.213932 
	C23.790611,27.723810 23.987160,27.369511 24.502579,26.965229 
	C25.203110,26.196417 25.584770,25.477587 26.291332,24.691685 
	C30.158325,21.765928 33.700417,18.907242 37.538189,16.057774 
	C38.221542,15.657517 38.609211,15.248042 39.252678,14.806860 
	C39.730560,14.524112 39.952644,14.273071 40.421310,14.057043 
	C40.667889,14.092057 41.053619,13.776900 41.409874,13.749515 
	C47.086514,11.145782 52.319946,8.364829 57.753860,6.055638 
	C62.382782,4.088537 67.242424,2.664362 72.000000,1.000000 
	C72.750000,1.000000 73.500000,1.000000 74.707016,1.374120 
	C77.643204,3.330714 80.077095,4.499587 82.000000,1.000000 
	C107.354225,1.000000 132.708450,1.000000 158.589355,1.346414 
	C160.801178,3.651041 162.156769,3.761672 163.000000,1.000000 
	C163.750000,1.000000 164.500000,1.000000 165.704819,1.379952 
	C168.956909,3.403081 171.705917,4.548411 174.000000,1.000000 
	C176.700012,1.000000 179.400024,1.000000 182.584473,1.298300 
	C183.478821,1.912493 183.888718,2.228387 184.298615,2.544277 
	C184.532410,2.029515 184.766205,1.514757 185.000000,0.999999 
	C241.020889,1.000000 297.041779,1.000000 353.576782,1.334057 
	C355.060577,1.445407 356.030273,1.222700 357.000000,0.999997 
	C357.444458,1.000000 357.888885,1.000000 358.737152,1.367290 
	C361.366577,3.664041 363.403412,4.087672 365.000000,1.000000 
	C386.354218,1.000000 407.708466,1.000000 429.618927,1.167069 
	C430.450104,1.222757 430.725067,1.111375 431.000000,0.999997 
	C435.356903,1.000000 439.713806,1.000000 444.500183,1.370249 
	C448.876251,3.433165 452.822845,5.125832 456.996765,6.997946 
	C458.147186,7.474233 459.070374,7.771072 460.228271,8.279934 
	C461.804565,9.057519 463.146118,9.623082 464.662018,10.444715 
	C465.563812,11.003654 466.291260,11.306522 467.258545,11.845537 
	C468.311035,12.418670 469.123596,12.755657 470.117401,13.355534 
	C471.738800,14.526523 473.179016,15.434624 474.762756,16.641720 
	C478.216248,19.366627 481.526184,21.792538 484.949341,24.500637 
	C485.772400,25.489674 486.482239,26.196520 487.243866,27.192089 
	C487.886627,27.934023 488.477570,28.387232 489.232086,29.055466 
	C489.803894,29.617983 490.212158,29.965471 490.726074,30.647724 
	C493.528046,34.682632 496.224365,38.382774 498.979248,42.377350 
	C499.380707,43.106106 499.723602,43.540424 500.059998,44.340172 
	C502.410126,49.132973 504.766724,53.560349 507.120087,58.384682 
	C509.077911,65.521088 511.038940,72.260544 513.000000,79.000000 
	C513.000000,80.066673 513.000000,81.133339 512.625122,82.817123 
	C512.131104,84.579681 511.907654,85.725121 511.907593,86.870575 
	C511.903564,180.310226 511.902832,273.749878 511.939209,367.189545 
	C511.947906,389.499939 512.084595,411.810272 512.038696,434.462769 
	C510.384521,441.588593 508.853943,448.372223 507.186035,455.497009 
	C507.008392,456.572021 506.968048,457.305908 506.674072,458.255615 
	C504.214142,462.902893 502.007843,467.334381 499.802917,471.823608 
	C499.804291,471.881348 499.918915,471.895691 499.591614,471.982849 
	C498.677307,473.232849 498.090302,474.395660 497.220825,475.722290 
	C494.301300,479.264404 491.664276,482.642700 488.748596,486.183136 
	C486.926483,487.831085 485.382935,489.316925 483.516602,490.912659 
	C479.734558,493.961914 476.275269,496.901276 472.508148,499.910156 
	C471.499207,500.383911 470.798096,500.788208 469.738770,501.217896 
	C464.932892,503.580170 460.485229,505.917084 455.705078,508.219208 
	C454.930176,508.174438 454.487701,508.164429 453.800598,507.845337 
	C450.642426,507.023712 447.729156,506.064728 444.815308,506.062988 
	C319.902863,505.988251 194.990356,505.978821 70.077965,506.081360 
	C65.722214,506.084961 61.367466,507.308380 56.724632,508.018738 
	C56.248199,508.124054 56.059387,508.173859 55.678627,508.011597 
	C54.970074,507.607422 54.453465,507.415314 53.691002,506.983582 
	C49.301468,504.809448 45.157799,502.874969 40.904079,500.672852 
	C40.252193,500.257843 39.710354,500.110474 39.035576,499.657349 
	C34.906689,496.340485 30.910742,493.329376 26.801592,490.008453 
	C25.493296,488.795654 24.298204,487.892700 23.010071,486.656036 
	C19.291391,481.778809 15.665753,477.235229 12.094268,472.471619 
	C12.148421,472.251556 11.822917,471.936096 11.782192,471.623047 
	C11.235268,470.652405 10.729068,469.994781 10.204914,468.997559 
	C8.678224,465.490082 7.169488,462.322205 5.715855,458.767365 
	C4.180636,453.586945 2.590317,448.793488 0.999999,444.000000 
M271.003662,81.590744 
	C271.001862,79.758484 271.127747,77.915451 270.974304,76.095985 
	C270.514587,70.645546 267.750366,65.961266 262.730621,64.671654 
	C257.896210,63.429638 251.555099,62.724102 247.553635,64.886848 
	C242.289581,67.731979 239.946716,74.102531 239.971451,80.736198 
	C240.057800,103.893623 240.054779,127.051819 239.951782,150.209122 
	C239.933426,154.332153 239.509964,158.493408 238.796188,162.553085 
	C238.521454,164.115601 237.232422,166.135971 235.862778,166.763977 
	C228.371704,170.198761 220.292725,172.545593 213.226837,176.659378 
	C206.042603,180.842072 197.682037,185.321762 193.534821,191.976212 
	C180.188980,213.390427 191.149933,232.645218 210.756943,242.859451 
	C217.952438,246.607910 226.138885,248.541916 233.995865,250.894211 
	C237.698410,252.002716 239.732285,253.807571 240.017883,257.704041 
	C240.340195,262.101715 236.919113,263.513977 234.019241,264.694427 
	C229.013382,266.732178 223.783768,268.323151 218.530151,269.626495 
	C209.642365,271.831360 203.005127,277.348907 196.878555,283.658112 
	C184.133163,296.783295 186.419266,316.003265 197.522980,327.412842 
	C207.119339,337.273560 218.411758,341.985870 231.409683,344.070251 
	C238.587982,345.221344 239.998734,346.887726 239.999023,354.182404 
	C240.000137,381.338623 239.974075,408.494873 240.014343,435.651031 
	C240.026093,443.571381 244.686584,449.668579 251.832138,451.422333 
	C259.540771,453.314331 266.368805,450.716003 269.336395,443.733795 
	C271.036957,439.732727 271.844116,435.067535 271.882477,430.691101 
	C272.110382,404.703094 272.061371,378.711761 271.932983,352.722412 
	C271.911316,348.333832 273.560791,345.637878 277.813812,345.053314 
	C289.349823,343.467804 299.771606,339.009094 309.024719,332.222595 
	C320.246552,323.992096 325.991058,308.802124 322.680237,297.650177 
	C318.757050,284.435486 308.908783,276.516449 297.105652,271.090576 
	C290.714111,268.152405 283.551300,266.848389 276.682861,265.006897 
	C272.241791,263.816193 271.034119,260.305298 271.242828,256.675690 
	C271.364044,254.566803 273.160034,251.524200 274.989471,250.741577 
	C279.969666,248.611069 285.346466,247.378677 290.605652,245.934372 
	C309.446442,240.760193 325.508759,227.718872 322.900421,205.777496 
	C321.973724,197.982132 318.910248,191.036346 312.534515,185.634354 
	C302.797852,177.384750 291.431702,172.911499 279.366211,169.623093 
	C271.085907,167.366333 270.888794,167.068039 271.031128,158.039261 
	C271.252380,144.001099 271.886993,129.966446 271.920166,115.929291 
	C271.946442,104.809135 271.333008,93.687462 271.003662,81.590744 
z"/>
<path fill="#105629" opacity="1.000000" stroke="none" 
	d="
M441.000000,513.000000 
	C319.644043,513.000000 198.288055,513.000000 76.129425,512.876343 
	C72.461777,512.073792 69.596802,511.394806 66.912521,510.293396 
	C69.188057,509.249329 71.281158,508.092590 73.377983,508.085815 
	C108.354965,507.972656 143.332413,508.002167 178.309769,508.002350 
	C263.920990,508.002777 349.532196,508.008881 435.143433,507.987640 
	C438.194794,507.986908 441.316254,507.584717 441.994934,511.780792 
	C441.524994,512.278625 441.262482,512.639343 441.000000,513.000000 
z"/>
<path fill="#64866E" opacity="1.000000" stroke="none" 
	d="
M512.162354,434.120636 
	C512.084595,411.810272 511.947906,389.499939 511.939209,367.189545 
	C511.902832,273.749878 511.903564,180.310226 511.907593,86.870575 
	C511.907654,85.725121 512.131104,84.579681 512.625122,83.217117 
	C513.000000,199.687561 513.000000,316.375122 512.796082,433.599701 
	C512.592163,434.136719 512.162415,434.120636 512.162354,434.120636 
z"/>
<path fill="#C1C4BE" opacity="1.000000" stroke="none" 
	d="
M470.000000,1.000000 
	C479.687561,1.000000 489.375122,1.000000 499.542572,1.421201 
	C499.675873,6.901862 499.329285,11.961323 498.991882,17.007698 
	C499.001007,16.994612 499.026642,16.978405 498.559509,16.988844 
	C493.719757,17.006435 489.347137,17.013588 484.964813,16.553545 
	C484.955078,11.882010 484.955078,7.677674 484.955078,3.015341 
	C479.455536,3.015341 474.720062,3.015341 470.023224,2.680285 
	C470.041260,1.896819 470.020630,1.448409 470.000000,1.000000 
z"/>
<path fill="#F4F7F1" opacity="1.000000" stroke="none" 
	d="
M483.839417,490.802795 
	C485.382935,489.316925 486.926483,487.831085 489.201904,486.202271 
	C492.478546,485.937561 495.023254,485.815765 498.082977,485.669312 
	C497.870941,481.970642 497.687134,478.764557 497.503296,475.558472 
	C498.090302,474.395660 498.677307,473.232849 499.616394,472.453430 
	C499.984924,477.178650 500.001404,481.520508 499.713318,486.162964 
	C499.264160,490.985962 499.119568,495.508362 498.984680,500.011536 
	C498.994385,499.992310 499.035339,499.980286 498.566254,499.977234 
	C484.617432,499.932037 484.617432,499.932037 485.000000,513.000000 
	C484.555542,513.000000 484.111115,513.000000 483.333984,512.538208 
	C482.998138,508.080597 482.994904,504.084839 483.263977,499.867798 
	C483.649017,498.746735 483.761719,497.846893 483.908142,496.509888 
	C483.907715,494.316071 483.873596,492.559448 483.839417,490.802795 
z"/>
<path fill="#C1C4BE" opacity="1.000000" stroke="none" 
	d="
M1.000000,17.000000 
	C1.000000,11.724261 1.000000,6.448523 1.000000,1.000000 
	C9.020256,1.000000 17.041449,1.000000 25.539093,1.349913 
	C26.019819,2.166610 26.024096,2.633395 25.560461,3.068556 
	C12.873519,2.955116 12.873436,2.955116 12.960986,15.051777 
	C12.965746,15.709466 12.973760,16.367132 12.986560,17.014080 
	C12.992860,17.003353 13.014255,16.988237 12.552956,17.004410 
	C8.394438,17.013721 4.697219,17.006861 1.000000,17.000000 
z"/>
<path fill="#F7F9F7" opacity="1.000000" stroke="none" 
	d="
M498.982727,17.020782 
	C499.329285,11.961323 499.675873,6.901862 500.011230,1.421201 
	C501.714355,1.000000 503.428711,1.000000 505.565674,1.403947 
	C508.325531,2.205263 510.662781,2.602631 513.000000,3.000000 
	C513.000000,7.356899 513.000000,11.713799 512.535889,16.509768 
	C507.708710,16.972818 503.345734,16.996801 498.982727,17.020782 
z"/>
<path fill="#FCFCF9" opacity="1.000000" stroke="none" 
	d="
M500.066467,43.974747 
	C499.723602,43.540424 499.380707,43.106106 499.031311,41.916931 
	C499.010773,37.787300 498.996796,34.412518 498.989624,30.818169 
	C498.996429,30.598600 498.969269,30.160091 499.435242,30.143368 
	C504.267487,30.084429 508.633759,30.042215 513.000000,30.000000 
	C513.000000,34.689255 513.000000,39.378513 512.622192,44.543571 
	C511.490448,45.062069 510.736511,45.104767 509.743011,44.873558 
	C506.357788,44.391354 503.212128,44.183052 500.066467,43.974747 
z"/>
<path fill="#B7BCB5" opacity="1.000000" stroke="none" 
	d="
M498.974976,500.030731 
	C499.119568,495.508362 499.264160,490.985962 500.167236,486.215759 
	C504.278503,486.019867 507.631317,486.071838 511.038239,486.429382 
	C511.728241,487.156677 512.364136,487.578339 513.000000,488.000000 
	C513.000000,491.692902 513.000000,495.385834 512.535278,499.535400 
	C507.705383,500.004944 503.340179,500.017853 498.974976,500.030731 
z"/>
<path fill="#E2EBE4" opacity="1.000000" stroke="none" 
	d="
M71.532394,1.000000 
	C67.242424,2.664362 62.382782,4.088537 57.753860,6.055638 
	C52.319946,8.364829 47.086514,11.145782 41.409904,13.307236 
	C41.031925,9.626602 41.010166,6.360860 41.000450,2.796943 
	C41.038128,2.301480 41.063755,2.104192 41.451828,2.103161 
	C44.592667,2.515864 47.386509,3.003645 50.143669,2.846781 
	C51.792133,2.752995 53.383156,1.649585 55.000000,1.000000 
	C60.354931,1.000000 65.709862,1.000000 71.532394,1.000000 
z"/>
<path fill="#FCFCF9" opacity="1.000000" stroke="none" 
	d="
M510.984131,486.123779 
	C507.631317,486.071838 504.278503,486.019867 500.471802,485.915100 
	C500.001404,481.520508 499.984924,477.178650 499.943695,472.366272 
	C499.918915,471.895691 499.804291,471.881348 500.273407,471.903992 
	C504.828339,471.951080 508.914185,471.975525 513.000000,472.000000 
	C513.000000,476.356903 513.000000,480.713806 512.662720,485.534363 
	C511.878296,486.039917 511.431213,486.081848 510.984131,486.123779 
z"/>
<path fill="#FCFCF9" opacity="1.000000" stroke="none" 
	d="
M498.984680,500.011536 
	C503.340179,500.017853 507.705383,500.004944 512.535278,499.996033 
	C513.000000,504.260040 513.000000,508.520050 513.000000,513.000000 
	C508.650970,513.000000 504.299591,513.000000 499.444641,512.537476 
	C498.972473,508.043365 499.003906,504.011810 499.035339,499.980286 
	C499.035339,499.980286 498.994385,499.992310 498.984680,500.011536 
z"/>
<path fill="#BEC0BB" opacity="1.000000" stroke="none" 
	d="
M513.000000,29.536818 
	C508.633759,30.042215 504.267487,30.084429 499.456970,29.662373 
	C499.017334,25.124868 499.021973,21.051638 499.026642,16.978405 
	C499.026642,16.978405 499.001007,16.994612 498.991882,17.007698 
	C503.345734,16.996801 507.708710,16.972818 512.535889,16.974419 
	C513.000000,21.024544 513.000000,25.049089 513.000000,29.536818 
z"/>
<path fill="#C1C4BE" opacity="1.000000" stroke="none" 
	d="
M498.566254,499.977234 
	C499.003906,504.011810 498.972473,508.043365 498.970520,512.537476 
	C494.643097,513.000000 490.286194,513.000000 485.464661,513.000000 
	C484.617432,499.932037 484.617432,499.932037 498.566254,499.977234 
z"/>
<path fill="#FCFCF9" opacity="1.000000" stroke="none" 
	d="
M26.000000,513.000000 
	C21.643101,513.000000 17.286201,513.000000 12.560556,512.597900 
	C12.472599,508.119873 12.753387,504.043915 13.017712,499.984253 
	C13.001247,500.000488 12.968839,500.033539 13.434482,500.004211 
	C17.951906,499.994263 22.003687,500.013702 26.208160,500.042358 
	C26.360853,500.051575 26.664248,500.012146 26.739452,500.343262 
	C26.827484,501.126190 26.840311,501.577972 26.596100,502.336670 
	C26.226042,506.095703 26.113020,509.547852 26.000000,513.000000 
z"/>
<path fill="#BEC0BB" opacity="1.000000" stroke="none" 
	d="
M26.853138,502.029785 
	C26.840311,501.577972 26.827484,501.126190 27.239222,500.333008 
	C31.498697,499.982117 35.333607,499.972595 39.168518,499.963104 
	C39.710354,500.110474 40.252193,500.257843 40.928856,501.023407 
	C41.082443,502.109619 41.101200,502.577637 41.091007,503.495972 
	C41.041374,506.964172 41.020687,509.982086 41.000000,513.000000 
	C36.975456,513.000000 32.950912,513.000000 28.425636,512.548096 
	C27.567650,508.740692 27.210396,505.385223 26.853138,502.029785 
z"/>
<path fill="#FCFCF9" opacity="1.000000" stroke="none" 
	d="
M482.991699,500.089081 
	C482.994904,504.084839 482.998138,508.080597 483.000671,512.538208 
	C478.975067,513.000000 474.950165,513.000000 470.485840,512.542358 
	C470.063293,508.453918 470.080139,504.823212 470.096985,501.192505 
	C470.798096,500.788208 471.499207,500.383911 472.954651,499.931946 
	C475.778778,499.822693 477.848602,499.761078 480.294922,499.797455 
	C481.444885,499.959991 482.218292,500.024536 482.991699,500.089081 
z"/>
<path fill="#FCFCF9" opacity="1.000000" stroke="none" 
	d="
M1.000000,500.000000 
	C1.000000,495.643097 1.000000,491.286194 1.460960,486.449158 
	C5.625376,485.969666 9.328831,485.970337 12.995240,486.437622 
	C12.961742,491.280640 12.965290,495.657104 12.968839,500.033539 
	C12.968839,500.033539 13.001247,500.000488 12.554059,499.987000 
	C8.404580,499.982330 4.702290,499.991150 1.000000,500.000000 
z"/>
<path fill="#BEC0BB" opacity="1.000000" stroke="none" 
	d="
M13.032287,485.971008 
	C9.328831,485.970337 5.625376,485.969666 1.460960,485.984497 
	C1.000000,481.643097 1.000000,477.286194 1.449773,472.477600 
	C4.596623,471.979462 7.293699,471.933044 10.296001,471.907959 
	C11.008457,471.931580 11.415687,471.933838 11.822917,471.936096 
	C11.822917,471.936096 12.148421,472.251556 12.139813,472.948730 
	C12.415338,477.774597 12.699470,481.903320 12.989672,486.012024 
	C12.995741,485.992004 13.032287,485.971008 13.032287,485.971008 
z"/>
<path fill="#BEC0BB" opacity="1.000000" stroke="none" 
	d="
M12.972389,40.985836 
	C13.065519,41.318501 13.036964,41.640373 12.586681,42.379128 
	C11.751245,43.197025 11.215852,43.587246 10.252022,44.055542 
	C6.882391,44.089077 3.941195,44.044540 1.000000,44.000000 
	C1.000000,39.643101 1.000000,35.286201 1.452289,30.522161 
	C5.221368,30.120020 8.538158,30.125021 11.901960,30.566189 
	C12.290112,34.330185 12.631250,37.658012 12.972389,40.985836 
z"/>
<path fill="#FCFCF9" opacity="1.000000" stroke="none" 
	d="
M11.854948,30.130020 
	C8.538158,30.125021 5.221368,30.120020 1.452289,30.057510 
	C1.000000,25.975456 1.000000,21.950911 1.000000,17.463184 
	C4.697219,17.006861 8.394438,17.013721 12.518684,17.468122 
	C12.917055,21.946716 12.888399,25.977768 12.605759,30.016027 
	C12.186166,30.058828 12.020556,30.094423 11.854948,30.130020 
z"/>
<path fill="#B7BCB5" opacity="1.000000" stroke="none" 
	d="
M1.000000,500.476654 
	C4.702290,499.991150 8.404580,499.982330 12.570523,499.970764 
	C12.753387,504.043915 12.472599,508.119873 12.095905,512.597900 
	C8.404062,513.000000 4.808125,513.000000 1.000000,513.000000 
	C1.000000,508.985962 1.000000,504.969635 1.000000,500.476654 
z"/>
<path fill="#B7BCB5" opacity="1.000000" stroke="none" 
	d="
M513.000000,471.535339 
	C508.914185,471.975525 504.828339,471.951080 500.272034,471.846252 
	C502.007843,467.334381 504.214142,462.902893 507.108459,458.262573 
	C509.530945,458.035828 511.265472,458.017914 513.000000,458.000000 
	C513.000000,462.356903 513.000000,466.713806 513.000000,471.535339 
z"/>
<path fill="#BEC0BB" opacity="1.000000" stroke="none" 
	d="
M469.738770,501.217896 
	C470.080139,504.823212 470.063293,508.453918 470.023224,512.542358 
	C465.643097,513.000000 461.286194,513.000000 456.469360,512.603882 
	C456.018768,510.889862 456.028137,509.571930 456.037537,508.253967 
	C460.485229,505.917084 464.932892,503.580170 469.738770,501.217896 
z"/>
<path fill="#F4F7F1" opacity="1.000000" stroke="none" 
	d="
M41.466118,513.000000 
	C41.020687,509.982086 41.041374,506.964172 41.455803,503.488281 
	C43.522900,503.667175 45.180878,504.348755 46.873314,504.930023 
	C49.214230,505.734009 51.581097,506.462463 53.936855,507.223267 
	C54.453465,507.415314 54.970074,507.607422 55.655418,508.409485 
	C55.882774,510.346313 55.941387,511.673157 56.000000,513.000000 
	C51.310745,513.000000 46.621487,513.000000 41.466118,513.000000 
z"/>
<path fill="#F7F9F7" opacity="1.000000" stroke="none" 
	d="
M9.990776,471.886627 
	C7.293699,471.933044 4.596623,471.979462 1.449773,472.012939 
	C1.000000,467.975464 1.000000,463.950897 1.385094,459.386841 
	C3.067042,458.949677 4.363895,459.051971 5.660751,459.154297 
	C7.169488,462.322205 8.678224,465.490082 10.140175,469.421631 
	C10.059186,470.752380 10.024981,471.319489 9.990776,471.886627 
z"/>
<path fill="#F4F7F1" opacity="1.000000" stroke="none" 
	d="
M1.000000,44.464653 
	C3.941195,44.044540 6.882391,44.089077 10.242304,44.411255 
	C8.638172,49.091526 6.615323,53.494152 4.231671,57.904377 
	C2.913912,57.941315 1.956956,57.970657 1.000000,58.000000 
	C1.000000,53.643101 1.000000,49.286201 1.000000,44.464653 
z"/>
<path fill="#E2EBE4" opacity="1.000000" stroke="none" 
	d="
M513.000000,78.531464 
	C511.038940,72.260544 509.077911,65.521088 507.433075,58.408028 
	C508.167145,58.012497 508.584961,57.990578 509.402283,57.986450 
	C510.867828,58.002827 511.933899,58.001415 513.000000,58.000000 
	C513.000000,64.687645 513.000000,71.375290 513.000000,78.531464 
z"/>
<path fill="#A8B8AA" opacity="1.000000" stroke="none" 
	d="
M56.468399,513.000000 
	C55.941387,511.673157 55.882774,510.346313 55.847366,508.621582 
	C56.059387,508.173859 56.248199,508.124054 57.070705,508.194702 
	C60.713539,509.115387 63.722679,509.915588 66.731827,510.715820 
	C69.596802,511.394806 72.461777,512.073792 75.663376,512.876343 
	C69.645599,513.000000 63.291203,513.000000 56.468399,513.000000 
z"/>
<path fill="#E2EBE4" opacity="1.000000" stroke="none" 
	d="
M455.705078,508.219177 
	C456.028137,509.571930 456.018768,510.889862 456.004700,512.603882 
	C451.310760,513.000000 446.621490,513.000000 441.466125,513.000000 
	C441.262482,512.639343 441.524994,512.278625 442.388184,511.798950 
	C446.674316,510.504761 450.359802,509.329620 454.045258,508.154449 
	C454.487701,508.164429 454.930176,508.174438 455.705078,508.219177 
z"/>
<path fill="#BEC0BB" opacity="1.000000" stroke="none" 
	d="
M513.000000,57.537773 
	C511.933899,58.001415 510.867828,58.002827 509.401672,57.540302 
	C509.328613,53.100060 509.655609,49.123760 509.982574,45.147461 
	C510.736511,45.104767 511.490448,45.062069 512.622192,45.009689 
	C513.000000,49.025185 513.000000,53.050365 513.000000,57.537773 
z"/>
<path fill="#F4F7F1" opacity="1.000000" stroke="none" 
	d="
M513.000000,457.536804 
	C511.265472,458.017914 509.530945,458.035828 507.362061,458.046753 
	C506.968048,457.305908 507.008392,456.572021 507.531891,455.417572 
	C508.699005,453.164886 509.245758,451.265015 510.107178,449.520538 
	C510.894440,447.926270 512.022278,446.500183 513.000000,445.000000 
	C513.000000,449.024536 513.000000,453.049103 513.000000,457.536804 
z"/>
<path fill="#C1C4BE" opacity="1.000000" stroke="none" 
	d="
M456.769470,6.818500 
	C452.822845,5.125832 448.876251,3.433165 444.964813,1.370249 
	C448.361298,1.000000 451.722565,1.000000 455.541718,1.355795 
	C456.006134,2.422619 456.012726,3.133648 456.143616,4.214114 
	C456.435089,5.328534 456.602264,6.073518 456.769470,6.818500 
z"/>
<path fill="#A8B8AA" opacity="1.000000" stroke="none" 
	d="
M513.000000,444.541931 
	C512.022278,446.500183 510.894440,447.926270 510.107178,449.520538 
	C509.245758,451.265015 508.699005,453.164886 507.669220,455.076447 
	C508.853943,448.372223 510.384521,441.588593 512.038757,434.462769 
	C512.162415,434.120636 512.592163,434.136719 512.796082,434.068359 
	C513.000000,437.361298 513.000000,440.722565 513.000000,444.541931 
z"/>
<path fill="#A8B8AA" opacity="1.000000" stroke="none" 
	d="
M5.715853,458.767334 
	C4.363895,459.051971 3.067042,458.949677 1.385094,458.923676 
	C1.000000,454.310760 1.000000,449.621490 0.999999,444.466125 
	C2.590317,448.793488 4.180636,453.586945 5.715853,458.767334 
z"/>
<path fill="#A8B8AA" opacity="1.000000" stroke="none" 
	d="
M1.000000,58.464653 
	C1.956956,57.970657 2.913912,57.941315 4.299248,58.308556 
	C4.675931,59.526478 4.624233,60.347816 4.572536,61.169151 
	C3.382024,64.536003 2.191512,67.902847 1.000500,71.634850 
	C1.000000,67.643097 1.000000,63.286201 1.000000,58.464653 
z"/>
<path fill="#F7F9F7" opacity="1.000000" stroke="none" 
	d="
M456.019287,3.844677 
	C456.012726,3.133648 456.006134,2.422619 455.999786,1.355795 
	C460.356903,1.000000 464.713806,1.000000 469.535339,1.000000 
	C470.020630,1.448409 470.041260,1.896819 470.031433,2.672012 
	C470.001007,2.998796 470.015747,2.983564 469.565002,3.014803 
	C465.714966,3.270857 462.315674,3.495673 458.555115,3.744917 
	C457.468994,3.794456 456.744141,3.819567 456.019287,3.844677 
z"/>
<path fill="#C1C4BE" opacity="1.000000" stroke="none" 
	d="
M54.535347,1.000000 
	C53.383156,1.649585 51.792133,2.752995 50.143669,2.846781 
	C47.386509,3.003645 44.592667,2.515864 41.434692,1.876332 
	C41.055122,1.453246 41.000000,1.000000 41.000000,1.000000 
	C45.356899,1.000000 49.713799,1.000000 54.535347,1.000000 
z"/>
<path fill="#FCFCF9" opacity="1.000000" stroke="none" 
	d="
M40.537388,1.000000 
	C41.000000,1.000000 41.055122,1.453246 41.072254,1.680075 
	C41.063755,2.104192 41.038128,2.301480 40.538555,2.789756 
	C36.042480,3.057880 32.020344,3.035016 27.998386,2.676868 
	C27.999041,1.894390 27.999521,1.447195 28.000000,1.000000 
	C32.024925,1.000000 36.049850,1.000000 40.537388,1.000000 
z"/>
<path fill="#E2EBE4" opacity="1.000000" stroke="none" 
	d="
M26.596102,502.336670 
	C27.210396,505.385223 27.567650,508.740692 27.962452,512.548096 
	C27.555555,513.000000 27.111111,513.000000 26.333332,513.000000 
	C26.113020,509.547852 26.226042,506.095703 26.596102,502.336670 
z"/>
<path fill="#0D3E1C" opacity="1.000000" stroke="none" 
	d="
M173.555832,1.000000 
	C171.705917,4.548411 168.956909,3.403081 166.079819,1.379952 
	C168.370560,1.000000 170.741104,1.000000 173.555832,1.000000 
z"/>
<path fill="#BEC0BB" opacity="1.000000" stroke="none" 
	d="
M513.000000,2.500000 
	C510.662781,2.602631 508.325531,2.205263 505.994141,1.403947 
	C508.333344,1.333334 510.666656,1.666667 513.000000,2.500000 
z"/>
<path fill="#0D3E1C" opacity="1.000000" stroke="none" 
	d="
M81.562500,1.000000 
	C80.077095,4.499587 77.643204,3.330714 75.082016,1.374120 
	C77.041664,1.000000 79.083336,1.000000 81.562500,1.000000 
z"/>
<path fill="#0D3E1C" opacity="1.000000" stroke="none" 
	d="
M364.571533,1.000000 
	C363.403412,4.087672 361.366577,3.664041 359.070496,1.367290 
	C360.714355,1.000000 362.428711,1.000000 364.571533,1.000000 
z"/>
<path fill="#0D3E1C" opacity="1.000000" stroke="none" 
	d="
M162.600006,1.000000 
	C162.156769,3.761672 160.801178,3.651041 159.058014,1.346414 
	C160.066666,1.000000 161.133347,1.000000 162.600006,1.000000 
z"/>
<path fill="#E2EBE4" opacity="1.000000" stroke="none" 
	d="
M27.666748,1.000000 
	C27.999521,1.447195 27.999041,1.894390 27.868773,2.894623 
	C27.453047,3.620406 27.167112,3.793150 26.692904,3.873712 
	C26.269951,3.607512 26.111198,3.380396 26.028374,3.100180 
	C26.024096,2.633395 26.019819,2.166610 26.007771,1.349913 
	C26.444498,1.000000 26.888998,1.000000 27.666748,1.000000 
z"/>
<path fill="#0D3E1C" opacity="1.000000" stroke="none" 
	d="
M356.625000,0.999997 
	C356.030273,1.222700 355.060577,1.445407 354.045410,1.334057 
	C354.750000,1.000000 355.500000,1.000000 356.625000,0.999997 
z"/>
<path fill="#0D3E1C" opacity="1.000000" stroke="none" 
	d="
M184.666672,0.999999 
	C184.766205,1.514757 184.532410,2.029515 184.298615,2.544277 
	C183.888718,2.228387 183.478821,1.912493 183.034454,1.298300 
	C183.444443,1.000000 183.888901,1.000000 184.666672,0.999999 
z"/>
<path fill="#C1C4BE" opacity="1.000000" stroke="none" 
	d="
M511.038239,486.429382 
	C511.431213,486.081848 511.878296,486.039917 512.662720,485.998993 
	C513.000000,486.444458 513.000000,486.888885 513.000000,487.666687 
	C512.364136,487.578339 511.728241,487.156677 511.038239,486.429382 
z"/>
<path fill="#0D3E1C" opacity="1.000000" stroke="none" 
	d="
M430.750000,0.999997 
	C430.725067,1.111375 430.450104,1.222757 430.087585,1.167069 
	C430.000000,1.000000 430.500000,1.000000 430.750000,0.999997 
z"/>
<path fill="#155E11" opacity="1.000000" stroke="none" 
	d="
M271.003662,82.078606 
	C271.333008,93.687462 271.946442,104.809135 271.920166,115.929291 
	C271.886993,129.966446 271.252380,144.001099 271.031128,158.039261 
	C270.888794,167.068039 271.085907,167.366333 279.366211,169.623093 
	C291.431702,172.911499 302.797852,177.384750 312.534515,185.634354 
	C318.910248,191.036346 321.973724,197.982132 322.900421,205.777496 
	C325.508759,227.718872 309.446442,240.760193 290.605652,245.934372 
	C285.346466,247.378677 279.969666,248.611069 274.989471,250.741577 
	C273.160034,251.524200 271.364044,254.566803 271.242828,256.675690 
	C271.034119,260.305298 272.241791,263.816193 276.682861,265.006897 
	C283.551300,266.848389 290.714111,268.152405 297.105652,271.090576 
	C308.908783,276.516449 318.757050,284.435486 322.680237,297.650177 
	C325.991058,308.802124 320.246552,323.992096 309.024719,332.222595 
	C299.771606,339.009094 289.349823,343.467804 277.813812,345.053314 
	C273.560791,345.637878 271.911316,348.333832 271.932983,352.722412 
	C272.061371,378.711761 272.110382,404.703094 271.882477,430.691101 
	C271.844116,435.067535 271.036957,439.732727 269.336395,443.733795 
	C266.368805,450.716003 259.540771,453.314331 251.832138,451.422333 
	C244.686584,449.668579 240.026093,443.571381 240.014343,435.651031 
	C239.974075,408.494873 240.000137,381.338623 239.999023,354.182404 
	C239.998734,346.887726 238.587982,345.221344 231.409683,344.070251 
	C218.411758,341.985870 207.119339,337.273560 197.522980,327.412842 
	C186.419266,316.003265 184.133163,296.783295 196.878555,283.658112 
	C203.005127,277.348907 209.642365,271.831360 218.530151,269.626495 
	C223.783768,268.323151 229.013382,266.732178 234.019241,264.694427 
	C236.919113,263.513977 240.340195,262.101715 240.017883,257.704041 
	C239.732285,253.807571 237.698410,252.002716 233.995865,250.894211 
	C226.138885,248.541916 217.952438,246.607910 210.756943,242.859451 
	C191.149933,232.645218 180.188980,213.390427 193.534821,191.976212 
	C197.682037,185.321762 206.042603,180.842072 213.226837,176.659378 
	C220.292725,172.545593 228.371704,170.198761 235.862778,166.763977 
	C237.232422,166.135971 238.521454,164.115601 238.796188,162.553085 
	C239.509964,158.493408 239.933426,154.332153 239.951782,150.209122 
	C240.054779,127.051819 240.057800,103.893623 239.971451,80.736198 
	C239.946716,74.102531 242.289581,67.731979 247.553635,64.886848 
	C251.555099,62.724102 257.896210,63.429638 262.730621,64.671654 
	C267.750366,65.961266 270.514587,70.645546 270.974304,76.095985 
	C271.127747,77.915451 271.001862,79.758484 271.003662,82.078606 
M308.661957,328.975586 
	C308.843903,328.680267 309.025818,328.384979 309.873779,327.971863 
	C323.092926,316.852386 324.297058,296.989258 312.306091,284.636810 
	C300.531494,272.507233 285.433746,268.070496 269.115295,266.282562 
	C269.115295,266.282562 268.941620,266.006195 269.002960,265.070740 
	C269.053314,259.412201 269.103668,253.753677 269.063019,248.061188 
	C269.063019,248.061188 269.094696,248.152954 269.919556,248.093903 
	C282.933044,246.507446 295.392639,243.379990 306.388519,235.738602 
	C326.191284,221.976990 323.428925,196.719086 308.041351,185.054565 
	C298.026215,177.462616 286.826141,173.616714 274.713837,171.980682 
	C270.468842,171.407318 268.875427,170.224915 268.915863,165.579681 
	C269.166626,136.766235 269.074463,107.949593 269.048065,79.134064 
	C269.040405,70.788155 263.935638,65.318283 256.085663,65.030556 
	C248.603210,64.756302 242.978363,69.999718 242.864334,78.106812 
	C242.527115,102.079758 242.408966,126.056137 242.288925,150.031586 
	C242.255615,156.682922 242.514023,163.335724 241.974625,170.508896 
	C240.393509,170.960846 238.805511,171.390091 237.232437,171.868469 
	C228.847916,174.418259 220.140518,176.235382 212.169235,179.730194 
	C202.604553,183.923615 195.282928,191.165710 192.186523,201.536255 
	C187.965561,215.673157 195.146576,230.508850 209.937119,238.483459 
	C218.477219,243.088028 227.447708,246.599365 237.310349,247.187698 
	C240.754456,247.393143 242.850998,248.616379 242.343124,252.732834 
	C241.938217,256.014771 242.100754,259.394012 242.291656,262.713928 
	C242.460175,265.644836 241.412735,266.868073 238.412216,267.106873 
	C226.366791,268.065521 215.496674,272.322876 205.571533,279.166260 
	C186.645920,292.215515 186.003494,316.314667 204.316513,330.132050 
	C215.421417,338.510895 228.226517,342.169373 242.065857,343.670776 
	C242.065857,343.670776 242.313660,344.022827 242.208221,344.948486 
	C242.190201,374.883118 242.160049,404.817780 242.191986,434.752380 
	C242.193497,436.166046 242.746475,437.579163 243.077499,439.573120 
	C243.303940,440.100769 243.530365,440.628448 243.817825,441.822388 
	C244.552902,442.871552 245.287979,443.920715 246.371384,445.583405 
	C252.689133,450.482758 259.317505,450.691345 263.105469,445.997528 
	C263.105469,445.997528 263.108093,446.115387 263.605865,445.943420 
	C263.823273,445.673859 264.040710,445.404266 264.704254,444.938263 
	C264.992188,444.732117 265.134918,444.452026 265.066101,443.998291 
	C265.066101,443.998291 265.093536,444.114777 265.717896,443.897919 
	C266.204498,442.950378 266.691101,442.002808 267.878448,440.685303 
	C268.214111,434.132904 268.549805,427.580536 268.997559,420.120422 
	C268.953796,417.072235 268.910034,414.024048 269.020599,410.194855 
	C268.969330,409.139099 268.918030,408.083344 268.979340,406.168304 
	C268.945160,404.437073 268.910980,402.705872 269.030273,400.116699 
	C268.976654,398.087952 268.923004,396.059204 268.969452,393.346375 
	C268.934723,392.888031 268.899963,392.429657 269.020294,391.050507 
	C268.968872,384.044647 268.917480,377.038818 268.969391,369.349060 
	C268.937408,368.890320 268.905457,368.431580 269.032532,367.060181 
	C268.983734,362.716156 268.934967,358.372162 268.994629,353.152039 
	C268.952789,351.095612 268.910919,349.039154 268.997864,346.316101 
	C268.944092,345.867798 268.890350,345.419464 269.097107,344.359741 
	C270.057159,343.923248 271.017242,343.486755 272.827820,343.061401 
	C283.328003,341.589508 293.694153,339.716431 302.761017,333.158691 
	C302.761017,333.158691 302.969482,332.989380 303.589417,332.829529 
	C304.447449,331.951447 305.305481,331.073364 306.090851,330.244965 
	C306.090851,330.244965 306.173340,330.275665 306.597870,330.372131 
	C306.597870,330.372131 307.013336,330.229431 307.535065,330.049927 
	C307.733856,329.754608 307.932648,329.459259 308.072174,329.039886 
	C308.072174,329.039886 308.167603,329.138855 308.661957,328.975586 
z"/>
<path fill="#044F1E" opacity="1.000000" stroke="none" 
	d="
M453.800598,507.845337 
	C450.359802,509.329620 446.674316,510.504761 442.595642,511.661743 
	C441.316254,507.584717 438.194794,507.986908 435.143433,507.987640 
	C349.532196,508.008881 263.920990,508.002777 178.309769,508.002350 
	C143.332413,508.002167 108.354965,507.972656 73.377983,508.085815 
	C71.281158,508.092590 69.188057,509.249329 66.912529,510.293396 
	C63.722679,509.915588 60.713539,509.115387 57.358322,508.139221 
	C61.367466,507.308380 65.722214,506.084961 70.077965,506.081360 
	C194.990356,505.978821 319.902863,505.988251 444.815308,506.062988 
	C447.729156,506.064728 450.642426,507.023712 453.800598,507.845337 
z"/>
<path fill="#F7F9F7" opacity="1.000000" stroke="none" 
	d="
M469.992798,3.007068 
	C474.720062,3.015341 479.455536,3.015341 484.955078,3.015341 
	C484.955078,7.677674 484.955078,11.882010 484.980865,16.543442 
	C485.006653,17.000538 485.025970,16.969080 484.588898,16.982410 
	C480.974274,16.778067 477.796753,16.560394 474.619202,16.342724 
	C473.179016,15.434624 471.738800,14.526523 470.165527,12.897207 
	C470.026886,9.111851 470.021301,6.047707 470.015747,2.983564 
	C470.015747,2.983564 470.001007,2.998796 469.992798,3.007068 
z"/>
<path fill="#C1C4BE" opacity="1.000000" stroke="none" 
	d="
M26.881176,3.965895 
	C27.167112,3.793150 27.453047,3.620406 27.868597,3.229906 
	C32.020344,3.035016 36.042480,3.057880 40.526508,3.087932 
	C41.010166,6.360860 41.031925,9.626602 41.053650,13.334621 
	C41.053619,13.776900 40.667889,14.092057 40.224838,14.193924 
	C39.507805,14.458863 39.246170,14.639789 38.996880,14.838566 
	C38.609211,15.248042 38.221542,15.657517 37.095959,16.085594 
	C33.178257,16.085388 29.998465,16.066578 26.856962,15.582905 
	C26.890560,11.400659 26.885868,7.683277 26.881176,3.965895 
z"/>
<path fill="#B7BCB5" opacity="1.000000" stroke="none" 
	d="
M13.434482,500.004211 
	C12.965290,495.657104 12.961742,491.280640 12.995240,486.437622 
	C13.032287,485.971008 12.995741,485.992004 13.428597,486.012024 
	C16.942007,486.351257 20.022560,486.670502 23.103111,486.989716 
	C24.298204,487.892700 25.493296,488.795654 26.667866,490.367737 
	C26.450050,494.035583 26.252760,497.034363 26.055470,500.033142 
	C22.003687,500.013702 17.951906,499.994263 13.434482,500.004211 
z"/>
<path fill="#F4F7F1" opacity="1.000000" stroke="none" 
	d="
M498.559509,16.988844 
	C499.021973,21.051638 499.017334,25.124868 498.990967,29.679096 
	C498.969269,30.160091 498.996429,30.598600 498.567841,30.814177 
	C495.632965,30.790827 493.126678,30.551901 490.620422,30.312967 
	C490.212158,29.965471 489.803894,29.617983 489.209290,28.753601 
	C488.412659,27.792263 487.802368,27.347820 487.192078,26.903370 
	C486.482239,26.196520 485.772400,25.489674 485.003784,24.049290 
	C484.972015,21.200195 484.998993,19.084639 485.025970,16.969080 
	C485.025970,16.969080 485.006653,17.000538 484.990601,17.010639 
	C489.347137,17.013588 493.719757,17.006435 498.559509,16.988844 
z"/>
<path fill="#BEC0BB" opacity="1.000000" stroke="none" 
	d="
M12.859742,30.008821 
	C12.888399,25.977768 12.917055,21.946716 12.979982,17.451950 
	C13.014255,16.988237 12.992860,17.003353 13.451519,16.993198 
	C17.951418,16.950125 21.992657,16.917208 26.046455,17.326756 
	C26.028156,20.099062 25.997293,22.428909 25.966431,24.758755 
	C25.584770,25.477587 25.203110,26.196417 24.261406,27.140623 
	C23.479265,27.693918 23.257166,28.021835 23.035065,28.349754 
	C22.329540,29.280464 21.624018,30.211172 20.346821,30.930519 
	C17.470013,30.482380 15.164878,30.245600 12.859742,30.008821 
z"/>
<path fill="#104824" opacity="1.000000" stroke="none" 
	d="
M4.908351,60.984959 
	C4.624233,60.347816 4.675931,59.526478 4.660051,58.300964 
	C6.615323,53.494152 8.638172,49.091526 10.670740,44.333183 
	C11.215852,43.587246 11.751245,43.197025 12.577452,42.625656 
	C13.643620,46.305939 10.615938,50.570091 14.547991,54.360867 
	C15.209101,54.998226 12.473261,59.159142 11.287373,61.734577 
	C9.079873,62.161758 7.828124,56.646183 4.908351,60.984959 
z"/>
<path fill="#C1C4BE" opacity="1.000000" stroke="none" 
	d="
M509.743011,44.873558 
	C509.655609,49.123760 509.328613,53.100060 509.002228,57.522511 
	C508.584961,57.990578 508.167145,58.012497 507.436310,58.011070 
	C504.766724,53.560349 502.410126,49.132973 500.059998,44.340176 
	C503.212128,44.183052 506.357788,44.391354 509.743011,44.873558 
z"/>
<path fill="#E2EBE4" opacity="1.000000" stroke="none" 
	d="
M26.208160,500.042358 
	C26.252760,497.034363 26.450050,494.035583 26.781069,490.677551 
	C30.910742,493.329376 34.906689,496.340485 39.035576,499.657349 
	C35.333607,499.972595 31.498697,499.982117 27.164017,500.001892 
	C26.664248,500.012146 26.360853,500.051575 26.208160,500.042358 
z"/>
<path fill="#F4F7F1" opacity="1.000000" stroke="none" 
	d="
M23.010071,486.656036 
	C20.022560,486.670502 16.942007,486.351257 13.422527,486.032043 
	C12.699470,481.903320 12.415338,477.774597 12.085660,473.168762 
	C15.665753,477.235229 19.291391,481.778809 23.010071,486.656036 
z"/>
<path fill="#C1C4BE" opacity="1.000000" stroke="none" 
	d="
M469.565002,3.014803 
	C470.021301,6.047707 470.026886,9.111851 469.984314,12.634319 
	C469.123596,12.755657 468.311035,12.418670 467.162048,11.529837 
	C466.046295,10.714874 465.266968,10.451757 464.487640,10.188643 
	C463.146118,9.623082 461.804565,9.057519 460.195007,7.910481 
	C459.590149,6.126167 459.253265,4.923327 458.916412,3.720488 
	C462.315674,3.495673 465.714966,3.270857 469.565002,3.014803 
z"/>
<path fill="#E2EBE4" opacity="1.000000" stroke="none" 
	d="
M12.605759,30.016027 
	C15.164878,30.245600 17.470013,30.482380 20.070179,31.036562 
	C20.210430,31.687506 20.055651,32.021046 19.572212,32.751099 
	C18.689524,33.973118 18.135492,34.798630 17.581463,35.624138 
	C17.581463,35.624138 17.567133,35.881527 17.322742,35.904930 
	C16.413095,36.962460 15.747839,37.996586 15.082581,39.030716 
	C14.528573,39.557281 13.974565,40.083847 13.196472,40.798126 
	C12.631250,37.658012 12.290112,34.330185 11.901960,30.566189 
	C12.020556,30.094423 12.186166,30.058828 12.605759,30.016027 
z"/>
<path fill="#A8B8AA" opacity="1.000000" stroke="none" 
	d="
M497.220825,475.722290 
	C497.687134,478.764557 497.870941,481.970642 498.082977,485.669312 
	C495.023254,485.815765 492.478546,485.937561 489.480530,486.040161 
	C491.664276,482.642700 494.301300,479.264404 497.220825,475.722290 
z"/>
<path fill="#E2EBE4" opacity="1.000000" stroke="none" 
	d="
M26.291332,24.691685 
	C25.997293,22.428909 26.028156,20.099062 26.127182,17.145576 
	C26.348360,16.291914 26.556135,16.133858 26.818672,16.047768 
	C29.998465,16.066578 33.178257,16.085388 36.800278,16.076376 
	C33.700417,18.907242 30.158325,21.765928 26.291332,24.691685 
z"/>
<path fill="#B7BCB5" opacity="1.000000" stroke="none" 
	d="
M490.726074,30.647734 
	C493.126678,30.551901 495.632965,30.790827 498.561035,31.033745 
	C498.996796,34.412518 499.010773,37.787300 498.972748,41.622498 
	C496.224365,38.382774 493.528046,34.682632 490.726074,30.647734 
z"/>
<path fill="#A8B8AA" opacity="1.000000" stroke="none" 
	d="
M479.918396,499.699463 
	C477.848602,499.761078 475.778778,499.822693 473.262482,499.862488 
	C476.275269,496.901276 479.734558,493.961914 483.516632,490.912659 
	C483.873596,492.559448 483.907715,494.316071 483.566650,496.523926 
	C482.100464,497.883240 481.009430,498.791351 479.918396,499.699463 
z"/>
<path fill="#B7BCB5" opacity="1.000000" stroke="none" 
	d="
M484.588898,16.982410 
	C484.998993,19.084639 484.972015,21.200195 484.890564,23.767101 
	C481.526184,21.792538 478.216248,19.366627 474.762756,16.641720 
	C477.796753,16.560394 480.974274,16.778067 484.588898,16.982410 
z"/>
<path fill="#E2EBE4" opacity="1.000000" stroke="none" 
	d="
M53.690994,506.983582 
	C51.581097,506.462463 49.214230,505.734009 46.873314,504.930023 
	C45.180878,504.348755 43.522900,503.667175 41.484756,503.037994 
	C41.101200,502.577637 41.082443,502.109619 41.038906,501.291077 
	C45.157799,502.874969 49.301468,504.809448 53.690994,506.983582 
z"/>
<path fill="#B7BCB5" opacity="1.000000" stroke="none" 
	d="
M458.555115,3.744916 
	C459.253265,4.923327 459.590149,6.126167 459.960266,7.698459 
	C459.070374,7.771072 458.147186,7.474233 456.996765,6.997948 
	C456.602264,6.073518 456.435089,5.328534 456.143616,4.214114 
	C456.744141,3.819567 457.468994,3.794456 458.555115,3.744916 
z"/>
<path fill="#104824" opacity="1.000000" stroke="none" 
	d="
M17.936260,35.712418 
	C18.135492,34.798630 18.689524,33.973118 19.522900,33.023628 
	C19.298513,33.866665 18.794785,34.833683 17.936260,35.712418 
z"/>
<path fill="#104824" opacity="1.000000" stroke="none" 
	d="
M15.467052,39.008049 
	C15.747839,37.996586 16.413095,36.962460 17.348917,35.778778 
	C17.030163,36.747948 16.440844,37.866665 15.467052,39.008049 
z"/>
<path fill="#F4F7F1" opacity="1.000000" stroke="none" 
	d="
M10.296001,471.907959 
	C10.024981,471.319489 10.059186,470.752380 10.158131,469.761200 
	C10.729068,469.994781 11.235268,470.652405 11.782192,471.623047 
	C11.415687,471.933838 11.008457,471.931580 10.296001,471.907959 
z"/>
<path fill="#B7BCB5" opacity="1.000000" stroke="none" 
	d="
M487.243866,27.192097 
	C487.802368,27.347820 488.412659,27.792263 489.045746,28.538572 
	C488.477570,28.387232 487.886627,27.934023 487.243866,27.192097 
z"/>
<path fill="#B7BCB5" opacity="1.000000" stroke="none" 
	d="
M464.662018,10.444712 
	C465.266968,10.451757 466.046295,10.714874 466.922150,11.293692 
	C466.291260,11.306522 465.563812,11.003654 464.662018,10.444712 
z"/>
<path fill="#E2EBE4" opacity="1.000000" stroke="none" 
	d="
M39.252678,14.806860 
	C39.246170,14.639789 39.507805,14.458863 39.978256,14.158911 
	C39.952644,14.273071 39.730560,14.524112 39.252678,14.806860 
z"/>
<path fill="#E2EBE4" opacity="1.000000" stroke="none" 
	d="
M23.314564,28.213932 
	C23.257166,28.021835 23.479265,27.693918 23.942539,27.190605 
	C23.987160,27.369511 23.790611,27.723810 23.314564,28.213932 
z"/>
<path fill="#C1C4BE" opacity="1.000000" stroke="none" 
	d="
M480.294922,499.797455 
	C481.009430,498.791351 482.100464,497.883240 483.532959,496.961121 
	C483.761719,497.846893 483.649017,498.746735 483.264008,499.867798 
	C482.218292,500.024536 481.444885,499.959991 480.294922,499.797455 
z"/>
<path fill="#F4F7F1" opacity="1.000000" stroke="none" 
	d="
M26.856962,15.582905 
	C26.556135,16.133858 26.348360,16.291914 26.114620,16.703114 
	C21.992657,16.917208 17.951418,16.950125 13.445219,17.003925 
	C12.973760,16.367132 12.965746,15.709466 12.960986,15.051777 
	C12.873436,2.955116 12.873519,2.955116 25.560463,3.068556 
	C26.111198,3.380396 26.269951,3.607512 26.692904,3.873712 
	C26.885868,7.683277 26.890560,11.400659 26.856962,15.582905 
z"/>
<path fill="#8CCD36" opacity="1.000000" stroke="none" 
	d="
M302.969482,332.989380 
	C302.969482,332.989380 302.761017,333.158691 302.200409,333.114441 
	C292.046417,335.834656 282.448029,338.582306 272.876251,341.419586 
	C272.452698,341.545135 272.271423,342.488037 271.977295,343.050232 
	C271.017242,343.486755 270.057159,343.923248 268.753571,344.669617 
	C268.410034,344.979492 267.982697,344.989990 267.588745,345.086182 
	C266.797455,346.852997 266.057617,348.522797 266.053802,350.194305 
	C265.987427,379.133179 266.011536,408.072205 266.011749,437.408112 
	C266.000244,438.864014 265.992859,439.923065 265.724609,441.205750 
	C265.340302,442.324524 265.216919,443.219635 265.093536,444.114777 
	C265.093536,444.114777 265.066101,443.998291 264.784363,444.031433 
	C264.000000,444.378510 263.497314,444.692444 263.011230,445.284851 
	C263.054596,445.747345 263.081329,445.931366 263.108093,446.115387 
	C263.108093,446.115387 263.105469,445.997528 262.741241,446.019653 
	C260.916840,446.355560 259.456696,446.669312 258.040894,446.627197 
	C260.923798,443.511200 262.512939,440.339020 262.195038,436.191589 
	C261.897095,432.304718 261.933472,428.379211 262.042847,424.476868 
	C262.289490,415.677612 262.921570,406.880920 262.877045,398.085785 
	C262.859161,394.555176 262.550018,390.128571 260.497284,387.687317 
	C255.816284,382.120300 257.873840,377.370728 260.449432,372.260254 
	C264.246033,364.726990 261.898682,351.981567 252.069611,348.276672 
	C247.517059,355.005096 248.539337,362.723816 248.663895,370.132019 
	C248.745895,375.009613 250.623199,379.894684 250.446213,384.730652 
	C250.133255,393.282043 248.578110,401.782013 248.087631,410.334747 
	C247.664749,417.708496 247.783569,425.134705 248.088806,432.520111 
	C248.247925,436.370605 249.325912,440.183105 249.665466,443.985016 
	C248.539215,443.644745 247.736389,443.332245 246.929016,442.787964 
	C246.924484,442.556152 246.913284,442.092590 246.904495,441.765350 
	C246.280487,440.951263 245.665253,440.464417 245.040924,439.510437 
	C245.015976,407.686462 245.000153,376.329620 244.893799,344.812927 
	C244.532730,344.765839 244.262192,344.878601 243.975555,345.256165 
	C243.939667,345.696686 243.919861,345.872406 243.694641,345.881683 
	C243.097397,345.151062 242.705536,344.586945 242.313660,344.022827 
	C242.313660,344.022827 242.065857,343.670776 241.955811,343.069946 
	C234.337860,339.997284 226.888336,337.325989 219.306396,335.107208 
	C210.969650,332.667542 203.778152,328.683228 198.900879,321.314575 
	C189.459534,307.050415 192.925797,290.667969 206.850052,281.312347 
	C216.819138,274.614227 227.933105,269.739044 240.323914,269.018677 
	C243.632507,268.826294 245.029709,267.026947 245.001404,263.830475 
	C244.964554,259.670868 245.008163,255.510620 244.988983,251.350784 
	C244.970474,247.339996 242.922073,245.247726 238.928055,245.006332 
	C227.253204,244.300720 216.546036,240.346786 207.033386,233.891891 
	C189.249176,221.824265 189.612564,201.264526 203.734192,188.373306 
	C211.870956,180.945496 222.600693,176.430359 234.125000,174.842636 
	C237.653259,174.356537 242.513367,175.235794 244.297073,169.720398 
	C244.918762,158.397049 245.444107,147.374084 245.522827,136.347946 
	C245.596893,125.969170 245.167313,115.587494 245.023788,105.206207 
	C244.948990,99.796692 244.816879,94.376038 245.070587,88.977325 
	C245.317947,83.713715 245.342041,78.282486 246.730911,73.276276 
	C247.982025,68.766670 254.210159,66.155983 258.170105,67.218254 
	C262.286835,68.322586 265.993835,73.426140 265.997467,78.213608 
	C266.019775,107.506165 266.002380,136.798752 266.013458,166.091324 
	C266.015625,171.756638 267.720245,173.328369 273.168549,174.043823 
	C287.538208,175.930740 300.614685,180.519547 311.044617,191.384933 
	C317.862549,198.487503 320.734772,214.782776 314.601257,223.789993 
	C310.067444,230.448029 304.389252,235.743881 296.837616,238.450592 
	C289.563599,241.057816 281.984009,242.801392 274.603668,245.130463 
	C272.644531,245.748718 270.924500,247.124817 269.094696,248.152954 
	C269.094696,248.152954 269.063019,248.061188 268.715027,248.104156 
	C265.408051,251.497559 264.891602,262.185730 267.580566,265.515869 
	C267.839508,265.836578 268.478851,265.850067 268.941620,266.006195 
	C268.941620,266.006195 269.115295,266.282562 269.139343,266.859009 
	C269.899109,267.948181 270.570587,268.742828 271.381012,268.927277 
	C276.199432,270.023987 281.245972,270.433777 285.852020,272.087646 
	C298.369080,276.582062 310.639801,281.461212 315.920349,295.578308 
	C318.568268,302.657379 319.156525,309.396820 315.514893,316.081268 
	C313.270752,320.200531 310.517181,324.042236 308.017426,328.294006 
	C308.084198,328.765930 308.125885,328.952393 308.167603,329.138855 
	C308.167603,329.138855 308.072174,329.039886 307.823608,329.038483 
	C307.386230,329.021912 307.197388,329.006714 306.773865,329.131989 
	C306.417206,329.606842 306.295288,329.941254 306.173340,330.275665 
	C306.173340,330.275665 306.090851,330.244965 305.743835,330.159302 
	C304.587708,331.045563 303.778595,332.017456 302.969482,332.989380 
M281.914917,317.552032 
	C285.368927,315.653351 288.996735,314.009735 292.239105,311.800446 
	C298.153900,307.770264 298.420441,301.828949 292.270660,298.363739 
	C286.165375,294.923676 279.417877,292.484741 272.734741,290.259216 
	C268.527313,288.858093 266.203583,291.020416 266.063385,295.734650 
	C265.880829,301.873474 265.911438,308.024109 266.052094,314.165039 
	C266.137634,317.899780 268.287933,320.165833 272.058136,319.859131 
	C275.137421,319.608612 278.153870,318.585663 281.914917,317.552032 
M219.028366,298.522919 
	C213.621552,306.492493 213.637024,308.412018 221.991348,313.141693 
	C227.334488,316.166656 233.510330,317.899597 239.498123,319.532349 
	C242.525162,320.357758 244.938232,318.401276 244.973175,314.840729 
	C245.038544,308.182190 244.986618,301.522522 244.990555,294.863342 
	C244.992844,290.974518 242.923569,288.982788 239.307465,290.222839 
	C232.618042,292.516815 226.123550,295.379211 219.028366,298.522919 
M215.807983,207.451920 
	C216.403519,209.662155 216.354111,212.436569 217.707581,213.983749 
	C223.214432,220.278748 230.967712,222.354248 238.783295,224.113281 
	C243.487213,225.171967 244.895477,224.205017 244.970657,219.469437 
	C245.068436,213.310516 245.015961,207.148804 244.991592,200.988449 
	C244.971588,195.929245 243.433640,194.280289 238.403564,195.098373 
	C229.747162,196.506210 221.625336,199.242996 215.807983,207.451920 
M296.505981,210.919189 
	C295.760315,208.872192 295.544708,206.332184 294.178009,204.862793 
	C287.969666,198.187897 279.573517,196.080826 270.942657,195.242981 
	C269.452606,195.098343 266.375671,197.829453 266.252991,199.405151 
	C265.725525,206.181183 265.698486,213.048523 266.251892,219.820297 
	C266.393951,221.558914 269.466309,224.585144 270.940918,224.441269 
	C280.911804,223.468536 290.575409,221.341995 296.505981,210.919189 
z"/>
<path fill="#84C54F" opacity="1.000000" stroke="none" 
	d="
M269.507141,248.123428 
	C270.924500,247.124817 272.644531,245.748718 274.603668,245.130463 
	C281.984009,242.801392 289.563599,241.057816 296.837616,238.450592 
	C304.389252,235.743881 310.067444,230.448029 314.601257,223.789993 
	C320.734772,214.782776 317.862549,198.487503 311.044617,191.384933 
	C300.614685,180.519547 287.538208,175.930740 273.168549,174.043823 
	C267.720245,173.328369 266.015625,171.756638 266.013458,166.091324 
	C266.002380,136.798752 266.019775,107.506165 265.997467,78.213608 
	C265.993835,73.426140 262.286835,68.322586 258.170105,67.218254 
	C254.210159,66.155983 247.982025,68.766670 246.730911,73.276276 
	C245.342041,78.282486 245.317947,83.713715 245.070587,88.977325 
	C244.816879,94.376038 244.948990,99.796692 245.023788,105.206207 
	C245.167313,115.587494 245.596893,125.969170 245.522827,136.347946 
	C245.444107,147.374084 244.918762,158.397049 244.067810,169.712799 
	C243.244385,169.995285 242.941528,169.989838 242.638611,169.987854 
	C242.514023,163.335724 242.255615,156.682922 242.288925,150.031586 
	C242.408966,126.056137 242.527115,102.079758 242.864334,78.106812 
	C242.978363,69.999718 248.603210,64.756302 256.085663,65.030556 
	C263.935638,65.318283 269.040405,70.788155 269.048065,79.134064 
	C269.074463,107.949593 269.166626,136.766235 268.915863,165.579681 
	C268.875427,170.224915 270.468842,171.407318 274.713837,171.980682 
	C286.826141,173.616714 298.026215,177.462616 308.041351,185.054565 
	C323.428925,196.719086 326.191284,221.976990 306.388519,235.738602 
	C295.392639,243.379990 282.933044,246.507446 269.507141,248.123428 
z"/>
<path fill="#81C34B" opacity="1.000000" stroke="none" 
	d="
M242.306610,170.248383 
	C242.941528,169.989838 243.244385,169.995285 243.776459,170.011795 
	C242.513367,175.235794 237.653259,174.356537 234.125000,174.842636 
	C222.600693,176.430359 211.870956,180.945496 203.734192,188.373306 
	C189.612564,201.264526 189.249176,221.824265 207.033386,233.891891 
	C216.546036,240.346786 227.253204,244.300720 238.928055,245.006332 
	C242.922073,245.247726 244.970474,247.339996 244.988983,251.350784 
	C245.008163,255.510620 244.964554,259.670868 245.001404,263.830475 
	C245.029709,267.026947 243.632507,268.826294 240.323914,269.018677 
	C227.933105,269.739044 216.819138,274.614227 206.850052,281.312347 
	C192.925797,290.667969 189.459534,307.050415 198.900879,321.314575 
	C203.778152,328.683228 210.969650,332.667542 219.306396,335.107208 
	C226.888336,337.325989 234.337860,339.997284 241.873108,342.871216 
	C228.226517,342.169373 215.421417,338.510895 204.316513,330.132050 
	C186.003494,316.314667 186.645920,292.215515 205.571533,279.166260 
	C215.496674,272.322876 226.366791,268.065521 238.412216,267.106873 
	C241.412735,266.868073 242.460175,265.644836 242.291656,262.713928 
	C242.100754,259.394012 241.938217,256.014771 242.343124,252.732834 
	C242.850998,248.616379 240.754456,247.393143 237.310349,247.187698 
	C227.447708,246.599365 218.477219,243.088028 209.937119,238.483459 
	C195.146576,230.508850 187.965561,215.673157 192.186523,201.536255 
	C195.282928,191.165710 202.604553,183.923615 212.169235,179.730194 
	C220.140518,176.235382 228.847916,174.418259 237.232437,171.868469 
	C238.805511,171.390091 240.393509,170.960846 242.306610,170.248383 
z"/>
<path fill="#84C54F" opacity="1.000000" stroke="none" 
	d="
M307.992371,328.008545 
	C310.517181,324.042236 313.270752,320.200531 315.514893,316.081268 
	C319.156525,309.396820 318.568268,302.657379 315.920349,295.578308 
	C310.639801,281.461212 298.369080,276.582062 285.852020,272.087646 
	C281.245972,270.433777 276.199432,270.023987 271.381012,268.927277 
	C270.570587,268.742828 269.899109,267.948181 269.155060,267.021454 
	C285.433746,268.070496 300.531494,272.507233 312.306091,284.636810 
	C324.297058,296.989258 323.092926,316.852386 309.237122,328.003723 
	C308.397736,328.026520 308.195038,328.017517 307.992371,328.008545 
z"/>
<path fill="#8ED24F" opacity="1.000000" stroke="none" 
	d="
M266.015869,437.011230 
	C266.011536,408.072205 265.987427,379.133179 266.053802,350.194305 
	C266.057617,348.522797 266.797455,346.852997 267.610474,345.373352 
	C268.307129,346.037140 268.588104,346.509918 268.869080,346.982727 
	C268.910919,349.039154 268.952789,351.095612 268.673645,353.897461 
	C268.526276,359.086182 268.699860,363.529510 268.873474,367.972839 
	C268.905457,368.431580 268.937408,368.890320 268.652893,370.003174 
	C268.512665,377.761993 268.688934,384.866638 268.865204,391.971313 
	C268.899963,392.429657 268.934723,392.888031 268.669556,393.959900 
	C268.538727,396.707184 268.707764,398.840912 268.876831,400.974640 
	C268.910980,402.705872 268.945160,404.437073 268.691345,406.818298 
	C268.557648,408.637482 268.711975,409.806671 268.866272,410.975861 
	C268.910034,414.024048 268.953796,417.072235 268.673340,420.883728 
	C268.233734,425.517151 268.272552,429.401550 267.916992,433.249481 
	C267.796753,434.550842 266.678223,435.759979 266.015869,437.011230 
z"/>
<path fill="#69AF46" opacity="1.000000" stroke="none" 
	d="
M242.260956,344.485657 
	C242.705536,344.586945 243.097397,345.151062 243.708313,346.345154 
	C243.932159,375.906281 243.952484,404.837524 243.903259,433.768646 
	C243.900299,435.510406 243.342361,437.251251 243.042633,438.992523 
	C242.746475,437.579163 242.193497,436.166046 242.191986,434.752380 
	C242.160049,404.817780 242.190201,374.883118 242.260956,344.485657 
z"/>
<path fill="#8ED24F" opacity="1.000000" stroke="none" 
	d="
M243.060059,439.282837 
	C243.342361,437.251251 243.900299,435.510406 243.903259,433.768646 
	C243.952484,404.837524 243.932159,375.906281 243.913696,346.511597 
	C243.919861,345.872406 243.939667,345.696686 244.223755,345.252045 
	C244.488052,344.983124 244.984344,344.972809 244.984344,344.972809 
	C245.000153,376.329620 245.015976,407.686462 245.023468,439.803955 
	C245.008804,440.760437 245.002487,440.956238 244.686279,441.142670 
	C244.169876,441.140930 243.963333,441.148499 243.756790,441.156097 
	C243.530365,440.628448 243.303940,440.100769 243.060059,439.282837 
z"/>
<path fill="#81C34B" opacity="1.000000" stroke="none" 
	d="
M272.402557,343.055817 
	C272.271423,342.488037 272.452698,341.545135 272.876251,341.419586 
	C282.448029,338.582306 292.046417,335.834656 302.066162,333.110443 
	C293.694153,339.716431 283.328003,341.589508 272.402557,343.055817 
z"/>
<path fill="#84C54F" opacity="1.000000" stroke="none" 
	d="
M268.972290,265.538452 
	C268.478851,265.850067 267.839508,265.836578 267.580566,265.515869 
	C264.891602,262.185730 265.408051,251.497559 268.760498,248.121124 
	C269.103668,253.753677 269.053314,259.412201 268.972290,265.538452 
z"/>
<path fill="#81C34B" opacity="1.000000" stroke="none" 
	d="
M246.933563,443.019775 
	C247.736389,443.332245 248.539215,443.644745 249.669571,443.979309 
	C249.997086,444.001373 249.987747,444.011078 250.030853,444.366089 
	C251.383728,445.476379 252.693497,446.231598 254.402618,446.991089 
	C255.866837,446.991241 256.931671,446.987152 257.996521,446.983063 
	C259.456696,446.669312 260.916840,446.355560 262.758057,446.076416 
	C259.317505,450.691345 252.689133,450.482758 246.292908,445.024139 
	C246.454147,443.983185 246.693848,443.501465 246.933563,443.019775 
z"/>
<path fill="#81C34B" opacity="1.000000" stroke="none" 
	d="
M266.011749,437.408112 
	C266.678223,435.759979 267.796753,434.550842 267.916992,433.249481 
	C268.272552,429.401550 268.233734,425.517151 268.617310,421.337585 
	C268.549805,427.580536 268.214111,434.132904 267.230042,440.850037 
	C266.382904,441.003906 266.184174,440.992981 265.985474,440.982086 
	C265.992859,439.923065 266.000244,438.864014 266.011749,437.408112 
z"/>
<path fill="#81C34B" opacity="1.000000" stroke="none" 
	d="
M268.942749,391.510925 
	C268.688934,384.866638 268.512665,377.761993 268.601257,370.345154 
	C268.917480,377.038818 268.968872,384.044647 268.942749,391.510925 
z"/>
<path fill="#81C34B" opacity="1.000000" stroke="none" 
	d="
M268.953003,367.516510 
	C268.699860,363.529510 268.526276,359.086182 268.619446,354.335510 
	C268.934967,358.372162 268.983734,362.716156 268.953003,367.516510 
z"/>
<path fill="#69AF46" opacity="1.000000" stroke="none" 
	d="
M246.929016,442.787964 
	C246.693848,443.501465 246.454147,443.983185 246.118744,444.717377 
	C245.287979,443.920715 244.552902,442.871552 243.787308,441.489258 
	C243.963333,441.148499 244.169876,441.140930 244.856750,441.362305 
	C245.862473,441.758362 246.387878,441.925476 246.913284,442.092590 
	C246.913284,442.092590 246.924484,442.556152 246.929016,442.787964 
z"/>
<path fill="#81C34B" opacity="1.000000" stroke="none" 
	d="
M268.953552,400.545654 
	C268.707764,398.840912 268.538727,396.707184 268.619507,394.301941 
	C268.923004,396.059204 268.976654,398.087952 268.953552,400.545654 
z"/>
<path fill="#84C54F" opacity="1.000000" stroke="none" 
	d="
M303.279449,332.909454 
	C303.778595,332.017456 304.587708,331.045563 305.780182,330.134460 
	C305.305481,331.073364 304.447449,331.951447 303.279449,332.909454 
z"/>
<path fill="#8ED24F" opacity="1.000000" stroke="none" 
	d="
M265.724579,441.205750 
	C266.184174,440.992981 266.382904,441.003906 266.879669,441.035034 
	C266.691101,442.002808 266.204498,442.950378 265.405701,444.006348 
	C265.216919,443.219635 265.340302,442.324524 265.724579,441.205750 
z"/>
<path fill="#81C34B" opacity="1.000000" stroke="none" 
	d="
M268.943420,410.585358 
	C268.711975,409.806671 268.557648,408.637482 268.635040,407.247925 
	C268.918030,408.083344 268.969330,409.139099 268.943420,410.585358 
z"/>
<path fill="#81C34B" opacity="1.000000" stroke="none" 
	d="
M268.933472,346.649414 
	C268.588104,346.509918 268.307129,346.037140 268.004425,345.277161 
	C267.982697,344.989990 268.410034,344.979492 268.623291,344.975342 
	C268.890350,345.419464 268.944092,345.867798 268.933472,346.649414 
z"/>
<path fill="#8ED24F" opacity="1.000000" stroke="none" 
	d="
M262.994659,445.006409 
	C263.497314,444.692444 264.000000,444.378510 264.817535,444.081238 
	C265.134918,444.452026 264.992188,444.732117 264.166016,444.992554 
	C263.416687,445.033356 263.205658,445.019867 262.994659,445.006409 
z"/>
<path fill="#81C34B" opacity="1.000000" stroke="none" 
	d="
M263.011230,445.284851 
	C263.205658,445.019867 263.416687,445.033356 263.942932,445.090759 
	C264.040710,445.404266 263.823273,445.673859 263.356995,446.029419 
	C263.081329,445.931366 263.054596,445.747345 263.011230,445.284851 
z"/>
<path fill="#81C34B" opacity="1.000000" stroke="none" 
	d="
M307.008575,328.991547 
	C307.197388,329.006714 307.386230,329.021912 307.853241,329.100525 
	C307.932648,329.459259 307.733856,329.754608 307.270813,329.829407 
	C307.007202,329.403137 307.007874,329.197327 307.008575,328.991547 
z"/>
<path fill="#81C34B" opacity="1.000000" stroke="none" 
	d="
M308.017395,328.294006 
	C308.195038,328.017517 308.397736,328.026520 308.904114,328.062622 
	C309.025818,328.384979 308.843903,328.680267 308.414795,329.057220 
	C308.125885,328.952393 308.084198,328.765930 308.017395,328.294006 
z"/>
<path fill="#84C54F" opacity="1.000000" stroke="none" 
	d="
M306.773865,329.131989 
	C307.007874,329.197327 307.007202,329.403137 307.009949,329.919189 
	C307.013336,330.229431 306.597870,330.372131 306.385620,330.323914 
	C306.295288,329.941254 306.417206,329.606842 306.773865,329.131989 
z"/>
<path fill="#8CCE31" opacity="1.000000" stroke="none" 
	d="
M258.040894,446.627197 
	C256.931671,446.987152 255.866837,446.991241 254.350861,446.655762 
	C252.595734,445.547821 251.291748,444.779449 249.987747,444.011078 
	C249.987747,444.011078 249.997086,444.001373 249.992981,444.007080 
	C249.325912,440.183105 248.247925,436.370605 248.088806,432.520111 
	C247.783569,425.134705 247.664749,417.708496 248.087631,410.334747 
	C248.578110,401.782013 250.133255,393.282043 250.446213,384.730652 
	C250.623199,379.894684 248.745895,375.009613 248.663895,370.132019 
	C248.539337,362.723816 247.517059,355.005096 252.069611,348.276672 
	C261.898682,351.981567 264.246033,364.726990 260.449432,372.260254 
	C257.873840,377.370728 255.816284,382.120300 260.497284,387.687317 
	C262.550018,390.128571 262.859161,394.555176 262.877045,398.085785 
	C262.921570,406.880920 262.289490,415.677612 262.042847,424.476868 
	C261.933472,428.379211 261.897095,432.304718 262.195038,436.191589 
	C262.512939,440.339020 260.923798,443.511200 258.040894,446.627197 
z"/>
<path fill="#84C54F" opacity="1.000000" stroke="none" 
	d="
M281.556519,317.728607 
	C278.153870,318.585663 275.137421,319.608612 272.058136,319.859131 
	C268.287933,320.165833 266.137634,317.899780 266.052094,314.165039 
	C265.911438,308.024109 265.880829,301.873474 266.063385,295.734650 
	C266.203583,291.020416 268.527313,288.858093 272.734741,290.259216 
	C279.417877,292.484741 286.165375,294.923676 292.270660,298.363739 
	C298.420441,301.828949 298.153900,307.770264 292.239105,311.800446 
	C288.996735,314.009735 285.368927,315.653351 281.556519,317.728607 
M283.395721,314.038849 
	C286.327759,312.227753 289.690887,310.833466 292.012482,308.432159 
	C293.198364,307.205658 293.429474,303.649536 292.512726,302.053558 
	C289.440216,296.704590 275.832336,292.051208 269.387146,293.645233 
	C269.387146,301.326782 269.387146,309.041321 269.387146,317.887878 
	C274.211945,316.565033 278.431061,315.408264 283.395721,314.038849 
z"/>
<path fill="#81C34B" opacity="1.000000" stroke="none" 
	d="
M219.288116,298.263885 
	C226.123550,295.379211 232.618042,292.516815 239.307465,290.222839 
	C242.923569,288.982788 244.992844,290.974518 244.990555,294.863342 
	C244.986618,301.522522 245.038544,308.182190 244.973175,314.840729 
	C244.938232,318.401276 242.525162,320.357758 239.498123,319.532349 
	C233.510330,317.899597 227.334488,316.166656 221.991348,313.141693 
	C213.637024,308.412018 213.621552,306.492493 219.288116,298.263885 
M227.989975,313.012939 
	C227.989975,313.012939 227.845459,313.162231 228.307968,313.740356 
	C232.668594,314.990631 237.029205,316.240906 241.727661,317.588043 
	C241.727661,308.747467 241.727661,300.933044 241.727661,291.807007 
	C235.148758,294.114502 229.220703,295.687775 223.808075,298.320618 
	C221.360428,299.511292 218.380249,302.876160 218.477875,305.131866 
	C218.580185,307.495728 221.954895,309.848358 224.163483,311.925018 
	C225.020126,312.730499 226.600204,312.766602 227.989975,313.012939 
z"/>
<path fill="#81C34B" opacity="1.000000" stroke="none" 
	d="
M215.961227,207.121185 
	C221.625336,199.242996 229.747162,196.506210 238.403564,195.098373 
	C243.433640,194.280289 244.971588,195.929245 244.991592,200.988449 
	C245.015961,207.148804 245.068436,213.310516 244.970657,219.469437 
	C244.895477,224.205017 243.487213,225.171967 238.783295,224.113281 
	C230.967712,222.354248 223.214432,220.278748 217.707581,213.983749 
	C216.354111,212.436569 216.403519,209.662155 215.961227,207.121185 
M230.351730,219.285126 
	C234.088699,220.240051 237.825684,221.194977 241.721939,222.190598 
	C241.721939,213.326614 241.721939,205.353287 241.721939,196.014526 
	C234.403442,198.977020 227.747055,201.054581 221.721222,204.302139 
	C216.724487,206.995087 216.767426,211.116776 221.297348,214.655167 
	C223.726059,216.552246 226.817047,217.601456 230.351730,219.285126 
z"/>
<path fill="#84C54F" opacity="1.000000" stroke="none" 
	d="
M296.341492,211.250565 
	C290.575409,221.341995 280.911804,223.468536 270.940918,224.441269 
	C269.466309,224.585144 266.393951,221.558914 266.251892,219.820297 
	C265.698486,213.048523 265.725525,206.181183 266.252991,199.405151 
	C266.375671,197.829453 269.452606,195.098343 270.942657,195.242981 
	C279.573517,196.080826 287.969666,198.187897 294.178009,204.862793 
	C295.544708,206.332184 295.760315,208.872192 296.341492,211.250565 
M276.219513,198.220047 
	C274.049561,197.820847 271.879608,197.421631 269.328918,196.952377 
	C269.328918,205.688568 269.328918,213.595352 269.328918,222.075226 
	C277.648285,220.980255 285.331848,219.288269 291.570679,213.846588 
	C294.969452,210.882095 295.082611,207.500046 291.313110,205.111176 
	C286.908722,202.319931 281.794739,200.648361 276.219513,198.220047 
z"/>
<path fill="#81C34B" opacity="1.000000" stroke="none" 
	d="
M246.904495,441.765381 
	C246.387878,441.925476 245.862473,441.758362 245.166626,441.371643 
	C245.002487,440.956238 245.008804,440.760437 245.032593,440.271118 
	C245.665253,440.464417 246.280487,440.951263 246.904495,441.765381 
z"/>
<path fill="#81C34B" opacity="1.000000" stroke="none" 
	d="
M244.893814,344.812927 
	C244.984344,344.972809 244.488052,344.983124 244.239838,344.987244 
	C244.262192,344.878601 244.532730,344.765839 244.893814,344.812927 
z"/>
<path fill="#8CCD36" opacity="1.000000" stroke="none" 
	d="
M250.030853,444.366089 
	C251.291748,444.779449 252.595734,445.547821 253.951508,446.651520 
	C252.693497,446.231598 251.383728,445.476379 250.030853,444.366089 
z"/>
<path fill="#155E11" opacity="1.000000" stroke="none" 
	d="
M283.022949,314.145172 
	C278.431061,315.408264 274.211945,316.565033 269.387146,317.887878 
	C269.387146,309.041321 269.387146,301.326782 269.387146,293.645233 
	C275.832336,292.051208 289.440216,296.704590 292.512726,302.053558 
	C293.429474,303.649536 293.198364,307.205658 292.012482,308.432159 
	C289.690887,310.833466 286.327759,312.227753 283.022949,314.145172 
M279.680969,313.616028 
	C282.677917,311.934784 285.983063,310.608490 288.524078,308.402100 
	C289.578888,307.486206 289.738708,304.340118 289.017395,302.819061 
	C287.335938,299.273376 277.961945,295.866028 274.111176,297.173065 
	C273.156525,297.497101 272.265228,299.184601 272.076477,300.362610 
	C271.558197,303.596832 271.081604,306.918030 271.311340,310.153473 
	C271.406921,311.499451 273.116547,313.139557 274.501099,313.858856 
	C275.656616,314.459106 277.408661,313.911011 279.680969,313.616028 
z"/>
<path fill="#105A0B" opacity="1.000000" stroke="none" 
	d="
M227.850708,313.153198 
	C226.600204,312.766602 225.020126,312.730499 224.163483,311.925018 
	C221.954895,309.848358 218.580185,307.495728 218.477875,305.131866 
	C218.380249,302.876160 221.360428,299.511292 223.808075,298.320618 
	C229.220703,295.687775 235.148758,294.114502 241.727661,291.807007 
	C241.727661,300.933044 241.727661,308.747467 241.727661,317.588043 
	C237.029205,316.240906 232.668594,314.990631 228.513702,313.394165 
	C229.704391,313.155884 230.711334,313.167633 231.670822,313.386963 
	C239.391968,315.151947 239.999863,314.694702 240.002625,306.959137 
	C240.003448,304.627960 240.253494,302.254364 239.879807,299.984070 
	C239.700821,298.896667 238.091248,297.038330 237.541550,297.175842 
	C232.656464,298.397919 227.568375,299.407684 223.138870,301.658356 
	C219.721497,303.394775 220.451569,306.478241 223.566803,308.833405 
	C225.168121,310.044037 226.433502,311.699036 227.850708,313.153198 
z"/>
<path fill="#105A0B" opacity="1.000000" stroke="none" 
	d="
M229.980469,219.159210 
	C226.817047,217.601456 223.726059,216.552246 221.297348,214.655167 
	C216.767426,211.116776 216.724487,206.995087 221.721222,204.302139 
	C227.747055,201.054581 234.403442,198.977020 241.721939,196.014526 
	C241.721939,205.353287 241.721939,213.326614 241.721939,222.190598 
	C237.825684,221.194977 234.088699,220.240051 229.980469,219.159210 
M236.664062,218.936493 
	C237.775284,217.632828 239.616364,216.445770 239.847092,215.001465 
	C240.340210,211.914673 240.069550,208.692825 239.983337,205.529800 
	C239.869400,201.350052 238.188461,200.164429 234.275513,201.420334 
	C231.596527,202.280197 228.668442,202.782837 226.360413,204.247025 
	C224.511505,205.419952 222.549759,207.684387 222.287903,209.680801 
	C222.084991,211.227661 224.064362,213.748138 225.725113,214.704117 
	C228.854630,216.505585 232.453796,217.491165 236.664062,218.936493 
z"/>
<path fill="#155E11" opacity="1.000000" stroke="none" 
	d="
M276.604065,198.355530 
	C281.794739,200.648361 286.908722,202.319931 291.313110,205.111176 
	C295.082611,207.500046 294.969452,210.882095 291.570679,213.846588 
	C285.331848,219.288269 277.648285,220.980255 269.328918,222.075226 
	C269.328918,213.595352 269.328918,205.688568 269.328918,196.952377 
	C271.879608,197.421631 274.049561,197.820847 276.604065,198.355530 
M284.926361,215.546890 
	C286.607635,213.337738 289.216339,211.276505 289.601624,208.860672 
	C289.812653,207.537384 286.479034,205.234985 284.362091,204.064209 
	C281.982666,202.748306 279.193695,202.141098 276.544891,201.353271 
	C273.970398,200.587524 271.938660,200.738281 271.885773,204.288025 
	C271.861664,205.907654 271.148102,207.507416 271.028748,209.136810 
	C270.423920,217.393250 271.602692,221.750946 281.494568,217.020599 
	C282.387299,216.593689 283.329315,216.269836 284.926361,215.546890 
z"/>
<path fill="#05531F" opacity="1.000000" stroke="none" 
	d="
M279.288757,313.743774 
	C277.408661,313.911011 275.656616,314.459106 274.501099,313.858856 
	C273.116547,313.139557 271.406921,311.499451 271.311340,310.153473 
	C271.081604,306.918030 271.558197,303.596832 272.076477,300.362610 
	C272.265228,299.184601 273.156525,297.497101 274.111176,297.173065 
	C277.961945,295.866028 287.335938,299.273376 289.017395,302.819061 
	C289.738708,304.340118 289.578888,307.486206 288.524078,308.402100 
	C285.983063,310.608490 282.677917,311.934784 279.288757,313.743774 
z"/>
<path fill="#05531F" opacity="1.000000" stroke="none" 
	d="
M227.920349,313.083069 
	C226.433502,311.699036 225.168121,310.044037 223.566803,308.833405 
	C220.451569,306.478241 219.721497,303.394775 223.138870,301.658356 
	C227.568375,299.407684 232.656464,298.397919 237.541550,297.175842 
	C238.091248,297.038330 239.700821,298.896667 239.879807,299.984070 
	C240.253494,302.254364 240.003448,304.627960 240.002625,306.959137 
	C239.999863,314.694702 239.391968,315.151947 231.670822,313.386963 
	C230.711334,313.167633 229.704391,313.155884 228.282440,313.105103 
	C227.845459,313.162231 227.989975,313.012939 227.920349,313.083069 
z"/>
<path fill="#05531F" opacity="1.000000" stroke="none" 
	d="
M236.260895,218.876190 
	C232.453796,217.491165 228.854630,216.505585 225.725113,214.704117 
	C224.064362,213.748138 222.084991,211.227661 222.287903,209.680801 
	C222.549759,207.684387 224.511505,205.419952 226.360413,204.247025 
	C228.668442,202.782837 231.596527,202.280197 234.275513,201.420334 
	C238.188461,200.164429 239.869400,201.350052 239.983337,205.529800 
	C240.069550,208.692825 240.340210,211.914673 239.847092,215.001465 
	C239.616364,216.445770 237.775284,217.632828 236.260895,218.876190 
z"/>
<path fill="#05531F" opacity="1.000000" stroke="none" 
	d="
M284.587402,215.722519 
	C283.329315,216.269836 282.387299,216.593689 281.494568,217.020599 
	C271.602692,221.750946 270.423920,217.393250 271.028748,209.136810 
	C271.148102,207.507416 271.861664,205.907654 271.885773,204.288025 
	C271.938660,200.738281 273.970398,200.587524 276.544891,201.353271 
	C279.193695,202.141098 281.982666,202.748306 284.362091,204.064209 
	C286.479034,205.234985 289.812653,207.537384 289.601624,208.860672 
	C289.216339,211.276505 286.607635,213.337738 284.587402,215.722519 
z"/>
</svg>